<?xml version="1.0" encoding="UTF-8" standalone="no"?>
<svg
   xmlns:dc="http://purl.org/dc/elements/1.1/"
   xmlns:cc="http://creativecommons.org/ns#"
   xmlns:rdf="http://www.w3.org/1999/02/22-rdf-syntax-ns#"
   xmlns:svg="http://www.w3.org/2000/svg"
   xmlns="http://www.w3.org/2000/svg"
   id="svg8"
   version="1.1"
   viewBox="0 0 298.00351 49.783008"
   height="49.783009mm"
   width="298.00351mm">
  <defs
     id="defs2" />
  <metadata
     id="metadata5">
    <rdf:RDF>
      <cc:Work
         rdf:about="">
        <dc:format>image/svg+xml</dc:format>
        <dc:type
           rdf:resource="http://purl.org/dc/dcmitype/StillImage" />
        <dc:title></dc:title>
      </cc:Work>
    </rdf:RDF>
  </metadata>
  <g
     id="g44">
    <path
       style="font-style:normal;font-variant:normal;font-weight:normal;font-stretch:normal;font-size:50.79999924px;line-height:1.25;font-family:Audiowide;-inkscape-font-specification:'Audiowide, Normal';font-variant-ligatures:normal;font-variant-caps:normal;font-variant-numeric:normal;font-feature-settings:normal;text-align:start;letter-spacing:0px;word-spacing:0px;writing-mode:lr-tb;text-anchor:start;fill:#00d1cd;fill-opacity:1;stroke:none;stroke-width:1.00157475;stroke-miterlimit:4;stroke-dasharray:none;stroke-opacity:1"
       d="M 39.09375 9.75 C 35.156249 9.75 30.90625 10.46875 26.34375 11.90625 C 21.78125 13.28125 17.53125 15.5625 13.59375 18.75 C 9.7187501 21.875 6.4687501 25.96875 3.84375 31.03125 C 1.2812501 36.031249 1.2377756e-16 42.187499 0 49.5 C 2.9605947e-16 56.812499 1.2812501 62.999999 3.84375 68.0625 C 6.4687501 73.124998 9.7187501 77.218748 13.59375 80.34375 C 17.53125 83.468749 21.78125 85.75 26.34375 87.1875 C 30.90625 88.5625 35.156249 89.25 39.09375 89.25 L 95.15625 89.25 C 97.406251 89.25 99.4375 89.625001 101.25 90.375 C 103.125 91.124999 104.6875 92.187498 105.9375 93.5625 C 107.25 94.9375 108.25 96.562502 108.9375 98.4375 C 109.625 100.3125 109.96875 102.375 109.96875 104.625 C 109.96875 109.25 108.65625 112.9375 106.03125 115.6875 C 103.46875 118.4375 99.843751 119.8125 95.15625 119.8125 L 1.125 119.8125 L 1.125 144.1875 L 95.15625 144.1875 C 97.78125 144.1875 100.5625 143.875 103.5 143.25 C 106.5 142.625 109.4375 141.65625 112.3125 140.34375 C 115.1875 139.03125 117.96875 137.34375 120.65625 135.28125 C 123.34375 133.21875 125.6875 130.71875 127.6875 127.78125 C 129.6875 124.84375 131.28125 121.46875 132.46875 117.65625 C 133.71875 113.78125 134.34375 109.4375 134.34375 104.625 C 134.34375 99.8125 133.75 95.5 132.5625 91.6875 C 131.375 87.875 129.75 84.499999 127.6875 81.5625 C 125.6875 78.624998 123.375 76.124998 120.75 74.0625 C 118.125 71.937498 115.34375 70.1875 112.40625 68.8125 C 109.53125 67.4375 106.625 66.4375 103.6875 65.8125 C 100.75 65.125014 97.96875 64.750013 95.34375 64.6875 L 95.15625 64.6875 L 39.09375 64.6875 C 34.468749 64.6875 30.84375 63.343751 28.21875 60.65625 C 25.65625 57.906251 24.375 54.187499 24.375 49.5 C 24.375 44.875 25.65625 41.15625 28.21875 38.34375 C 30.84375 35.53125 34.468749 34.125 39.09375 34.125 L 122.0625 34.125 L 122.0625 9.75 L 39.09375 9.75 z M 184.125 42.84375 C 179.9375 42.84375 176.1875 43.374999 172.875 44.4375 C 169.5625 45.499998 166.625 46.906251 164.0625 48.65625 C 161.5625 50.406252 159.40625 52.437501 157.59375 54.75 C 155.84375 57.062501 154.40625 59.5 153.28125 62.0625 C 152.15625 64.562499 151.3125 67.09375 150.75 69.65625 C 150.25 72.218752 150 74.656251 150 76.96875 L 150 109.96875 C 150 116.28125 151.125 121.625 153.375 126 C 155.6875 130.3125 158.53125 133.84375 161.90625 136.59375 C 165.34375 139.28125 169.0625 141.21875 173.0625 142.40625 C 177.0625 143.59375 180.75 144.1875 184.125 144.1875 L 250.21875 144.1875 L 250.21875 119.8125 L 184.3125 119.8125 C 181.0625 119.8125 178.59375 118.96875 176.90625 117.28125 C 175.21875 115.59375 174.375 113.15625 174.375 109.96875 L 174.375 77.15625 C 174.375 73.78125 175.1875 71.28125 176.8125 69.65625 C 178.5 68.03125 180.9375 67.21875 184.125 67.21875 L 250.21875 67.21875 L 250.21875 42.84375 L 184.125 42.84375 z M 287.34375 42.84375 L 287.34375 66 L 340.875 66 C 343.875 66 346.34375 66.937502 348.28125 68.8125 C 350.28125 70.687501 351.28125 73.21875 351.28125 76.40625 L 351.28125 110.4375 C 351.28125 113.4375 350.375 115.9375 348.5625 117.9375 C 346.75 119.9375 344.1875 120.9375 340.875 120.9375 L 297.09375 120.9375 C 294.21875 120.9375 291.71875 120.0625 289.59375 118.3125 C 287.53125 116.5 286.5 114 286.5 110.8125 C 286.5 107.8125 287.40625 105.3125 289.21875 103.3125 C 291.03125 101.25 293.59375 100.21875 296.90625 100.21875 L 340.875 100.21875 L 340.875 76.96875 L 296.90625 76.96875 C 290.78125 76.96875 285.5625 78.093749 281.25 80.34375 C 277 82.593748 273.53125 85.406248 270.84375 88.78125 C 268.21875 92.093749 266.3125 95.718751 265.125 99.65625 C 263.9375 103.59375 263.34375 107.25 263.34375 110.625 C 263.34375 116.75 264.46875 121.96875 266.71875 126.28125 C 268.96875 130.53125 271.75 134 275.0625 136.6875 C 278.4375 139.3125 282.0625 141.21875 285.9375 142.40625 C 289.875 143.59375 293.53125 144.1875 296.90625 144.1875 L 340.875 144.1875 C 347 144.1875 352.1875 143.0625 356.4375 140.8125 C 360.75 138.5625 364.21875 135.78125 366.84375 132.46875 C 369.53125 129.09375 371.46875 125.46875 372.65625 121.59375 C 373.84375 117.65625 374.4375 114 374.4375 110.625 L 374.4375 76.40625 C 374.4375 70.281248 373.3125 65.093748 371.0625 60.84375 C 368.8125 56.531249 366 53.0625 362.625 50.4375 C 359.3125 47.750001 355.6875 45.8125 351.75 44.625 C 347.875 43.4375 344.25 42.84375 340.875 42.84375 L 287.34375 42.84375 z M 407.71875 42.84375 C 406.03127 42.84375 404.43752 43.15625 402.9375 43.78125 C 401.43751 44.40625 400.12499 45.281251 399 46.40625 C 397.87499 47.468751 396.99998 48.750001 396.375 50.25 C 395.74999 51.6875 395.4375 53.250001 395.4375 54.9375 L 395.4375 144.1875 L 419.8125 144.1875 L 419.8125 67.21875 L 462.46875 67.21875 C 465.40625 67.21875 468.12499 67.71875 470.625 68.71875 C 473.18749 69.656252 475.40625 71.03125 477.28125 72.84375 C 479.15625 74.65625 480.625 76.84375 481.6875 79.40625 C 482.81251 81.906249 483.375 84.75 483.375 87.9375 L 483.375 144.1875 L 507.75 144.1875 L 507.75 87.9375 C 507.75 82.437501 507.06249 77.5 505.6875 73.125 C 504.31251 68.75 502.4375 64.906251 500.0625 61.59375 C 497.75001 58.21875 495.0625 55.374999 492 53.0625 C 488.99999 50.6875 485.81249 48.750001 482.4375 47.25 C 479.125 45.6875 475.75001 44.562501 472.3125 43.875 C 468.93751 43.187501 465.71875 42.84375 462.65625 42.84375 L 407.71875 42.84375 z "
       transform="scale(0.26458333)"
       id="path10" />
    <path
       id="path18"
       style="font-style:normal;font-variant:normal;font-weight:normal;font-stretch:normal;font-size:50.79999924px;line-height:1.25;font-family:Audiowide;-inkscape-font-specification:'Audiowide, Normal';font-variant-ligatures:normal;font-variant-caps:normal;font-variant-numeric:normal;font-feature-settings:normal;text-align:start;letter-spacing:0px;word-spacing:0px;writing-mode:lr-tb;text-anchor:start;fill:#eaeaea;fill-opacity:1;stroke:none;stroke-width:0.26499999;stroke-miterlimit:4;stroke-dasharray:none;stroke-opacity:1"
       d="M 172.31816,38.149609 H 139.65039 V 26.218554 q 0,-0.917773 0.19844,-1.934765 0.22324,-1.041797 0.66972,-2.05879 0.44649,-1.016992 1.14102,-1.934765 0.71934,-0.917774 1.71152,-1.612305 1.017,-0.719336 2.33164,-1.141015 1.31465,-0.42168 2.97657,-0.42168 h 14.53554 q 1.31465,0 1.93477,-0.644922 0.64492,-0.669726 0.64492,-1.934766 v -2.852539 q 0,-1.314648 -0.64492,-1.9843745 -0.64492,-0.6697266 -1.88516,-0.6697266 H 142.55254 V 2.5796873 h 20.71191 q 1.63711,0 2.95176,0.4216797 1.31465,0.4216796 2.30684,1.1410156 1.01699,0.6945312 1.73632,1.6123046 0.71934,0.9177734 1.16582,1.9347656 0.47129,0.9921875 0.66973,2.0339844 0.22324,1.0169918 0.22324,1.9099608 v 2.902148 q 0,2.505274 -0.91777,4.241602 -0.89297,1.711523 -2.25723,2.80293 -1.36425,1.066601 -2.95175,1.562695 -1.5627,0.471289 -2.92696,0.471289 H 148.6793 q -0.79375,0 -1.26504,0.223242 -0.47129,0.223242 -0.74414,0.595313 -0.24805,0.37207 -0.37207,0.843359 -0.12403,0.471289 -0.19844,0.942578 v 5.481836 h 26.21855 z" />
    <path
       style="font-style:normal;font-variant:normal;font-weight:normal;font-stretch:normal;font-size:50.79999924px;line-height:1.25;font-family:Audiowide;-inkscape-font-specification:'Audiowide, Normal';font-variant-ligatures:normal;font-variant-caps:normal;font-variant-numeric:normal;font-feature-settings:normal;text-align:start;letter-spacing:0px;word-spacing:0px;writing-mode:lr-tb;text-anchor:start;fill:#f30067;fill-opacity:1;stroke:none;stroke-width:1.00157475;stroke-miterlimit:4;stroke-dasharray:none;stroke-opacity:1"
       d="M 828 0 L 828 109.96875 C 828 116.28125 829.125 121.625 831.375 126 C 833.62498 130.3125 836.46874 133.84375 839.90625 136.59375 C 843.34376 139.28125 847.03124 141.21875 850.96875 142.40625 C 854.96875 143.59375 858.71876 144.1875 862.21875 144.1875 L 873.09375 144.1875 L 873.09375 119.8125 L 862.21875 119.8125 C 859.40625 119.8125 857.0625 118.9375 855.1875 117.1875 C 853.3125 115.375 852.375 112.96875 852.375 109.96875 L 852.375 0 L 828 0 z M 710.15625 9.75 C 706.78123 9.75 703.09375 10.375 699.09375 11.625 C 695.09375 12.8125 691.37498 14.75 687.9375 17.4375 C 684.56248 20.125 681.71874 23.65625 679.40625 28.03125 C 677.15625 32.40625 676.03125 37.71875 676.03125 43.96875 L 676.03125 144.1875 L 700.40625 144.1875 L 700.40625 43.96875 C 700.40625 40.78125 701.24999 38.34375 702.9375 36.65625 C 704.62498 34.96875 707.09373 34.125 710.34375 34.125 L 765.28125 34.125 C 768.46875 34.125 771.28123 34.65625 773.71875 35.71875 C 776.15624 36.71875 778.21877 38.124999 779.90625 39.9375 C 781.65627 41.749998 783.03126 43.937498 784.03125 46.5 C 785.03126 49.0625 785.68751 51.875002 786 54.9375 L 786 66 C 786 69.124999 785.50001 71.937501 784.5 74.4375 C 783.50001 76.875 782.09376 78.968751 780.28125 80.71875 C 778.46876 82.468752 776.28124 83.875002 773.71875 84.9375 C 771.21874 85.937497 768.40626 86.562497 765.28125 86.8125 L 710.15625 86.8125 L 710.15625 111.1875 L 765.28125 111.1875 C 768.28126 111.1875 771.46876 110.84375 774.84375 110.15625 C 778.28126 109.46875 781.65625 108.375 784.96875 106.875 C 788.34374 105.375 791.5625 103.4375 794.625 101.0625 C 797.6875 98.687498 800.37501 95.843749 802.6875 92.53125 C 805.0625 89.15625 806.93748 85.28125 808.3125 80.90625 C 809.68749 76.53125 810.375 71.5625 810.375 66 L 810.375 54.9375 C 810.375 51.9375 810.03125 48.75 809.34375 45.375 C 808.65625 41.937502 807.53126 38.562501 805.96875 35.25 C 804.46876 31.875 802.53125 28.65625 800.15625 25.59375 C 797.84373 22.53125 794.99999 19.84375 791.625 17.53125 C 788.3125 15.15625 784.46875 13.28125 780.09375 11.90625 C 775.71877 10.46875 770.78127 9.75 765.28125 9.75 L 710.15625 9.75 z M 906.46875 42.84375 L 906.46875 66 L 960 66 C 962.99999 66 965.46874 66.937502 967.40625 68.8125 C 969.40625 70.687501 970.40625 73.21875 970.40625 76.40625 L 970.40625 110.4375 C 970.40625 113.4375 969.50001 115.9375 967.6875 117.9375 C 965.87499 119.9375 963.31248 120.9375 960 120.9375 L 916.21875 120.9375 C 913.34374 120.9375 910.84375 120.0625 908.71875 118.3125 C 906.65626 116.5 905.625 114 905.625 110.8125 C 905.625 107.8125 906.53126 105.3125 908.34375 103.3125 C 910.15626 101.25 912.71875 100.21875 916.03125 100.21875 L 960 100.21875 L 960 76.96875 L 916.03125 76.96875 C 909.90625 76.96875 904.68752 78.093749 900.375 80.34375 C 896.12502 82.593748 892.65627 85.406248 889.96875 88.78125 C 887.34377 92.093749 885.4375 95.718751 884.25 99.65625 C 883.0625 103.59375 882.46875 107.25 882.46875 110.625 C 882.46875 116.75 883.59375 121.96875 885.84375 126.28125 C 888.09375 130.53125 890.875 134 894.1875 136.6875 C 897.56249 139.3125 901.1875 141.21875 905.0625 142.40625 C 908.99999 143.59375 912.65623 144.1875 916.03125 144.1875 L 960 144.1875 C 966.125 144.1875 971.31252 143.0625 975.5625 140.8125 C 979.87502 138.5625 983.34377 135.78125 985.96875 132.46875 C 988.65627 129.09375 990.59377 125.46875 991.78125 121.59375 C 992.96875 117.65625 993.5625 114 993.5625 110.625 L 993.5625 76.40625 C 993.5625 70.281248 992.43748 65.093748 990.1875 60.84375 C 987.9375 56.531249 985.12502 53.0625 981.75 50.4375 C 978.4375 47.750001 974.81249 45.8125 970.875 44.625 C 967 43.4375 963.37499 42.84375 960 42.84375 L 906.46875 42.84375 z M 1014 42.84375 L 1014 109.96875 C 1014 116.28125 1015.125 121.625 1017.375 126 C 1019.625 130.3125 1022.4687 133.84375 1025.9062 136.59375 C 1029.3438 139.28125 1033.0313 141.21875 1036.9688 142.40625 C 1040.9687 143.59375 1044.7187 144.1875 1048.2188 144.1875 L 1092.1875 144.1875 L 1092.1875 119.8125 L 1048.4062 119.8125 C 1045.0937 119.8125 1042.5938 118.96875 1040.9062 117.28125 C 1039.2187 115.59375 1038.375 113.15625 1038.375 109.96875 L 1038.375 42.84375 L 1014 42.84375 z M 1101.9375 42.84375 L 1101.9375 153.9375 C 1101.9375 157.125 1101.125 159.5625 1099.5 161.25 C 1097.875 162.9375 1095.4375 163.78125 1092.1875 163.78125 L 1048.2188 163.78125 L 1048.2188 188.15625 L 1092.1875 188.15625 C 1094.5 188.15625 1096.9375 187.875 1099.5 187.3125 C 1102.0625 186.8125 1104.5937 186 1107.0938 184.875 C 1109.6562 183.75 1112.0937 182.28125 1114.4062 180.46875 C 1116.7187 178.71875 1118.75 176.5625 1120.5 174 C 1122.25 171.5 1123.6562 168.5625 1124.7188 165.1875 C 1125.7813 161.875 1126.3125 158.125 1126.3125 153.9375 L 1126.3125 42.84375 L 1101.9375 42.84375 z "
       transform="scale(0.26458333)"
       id="path20" />
  </g>
</svg>
