<?xml version="1.0" encoding="UTF-8" standalone="no"?>
<!-- Created with Inkscape (http://www.inkscape.org/) -->

<svg
   xmlns:dc="http://purl.org/dc/elements/1.1/"
   xmlns:cc="http://creativecommons.org/ns#"
   xmlns:rdf="http://www.w3.org/1999/02/22-rdf-syntax-ns#"
   xmlns:svg="http://www.w3.org/2000/svg"
   xmlns="http://www.w3.org/2000/svg"
   xmlns:sodipodi="http://sodipodi.sourceforge.net/DTD/sodipodi-0.dtd"
   xmlns:inkscape="http://www.inkscape.org/namespaces/inkscape"
   width="720"
   height="1280"
   viewBox="0 0 190.5 338.66668"
   version="1.1"
   id="svg8"
   inkscape:version="0.92.3 (2405546, 2018-03-11)"
   sodipodi:docname="overlay.svg">
  <defs
     id="defs2" />
  <sodipodi:namedview
     id="base"
     pagecolor="#ffffff"
     bordercolor="#666666"
     borderopacity="1.0"
     inkscape:pageopacity="0.0"
     inkscape:pageshadow="2"
     inkscape:zoom="0.37734375"
     inkscape:cx="165.16739"
     inkscape:cy="651.77631"
     inkscape:document-units="mm"
     inkscape:current-layer="layer1"
     showgrid="false"
     units="px"
     inkscape:window-width="1366"
     inkscape:window-height="713"
     inkscape:window-x="0"
     inkscape:window-y="27"
     inkscape:window-maximized="1" />
  <metadata
     id="metadata5">
    <rdf:RDF>
      <cc:Work
         rdf:about="">
        <dc:format>image/svg+xml</dc:format>
        <dc:type
           rdf:resource="http://purl.org/dc/dcmitype/StillImage" />
        <dc:title></dc:title>
      </cc:Work>
    </rdf:RDF>
  </metadata>
  <g
     inkscape:label="Layer 1"
     inkscape:groupmode="layer"
     id="layer1"
     transform="translate(0,41.666703)">
    <path
       style="fill:#000000;fill-opacity:0.8;fill-rule:evenodd;stroke-width:1.75650954"
       d="M 0 0 L 0 1280 L 720 1280 L 720 0 L 0 0 z M 160 440 L 560 440 L 560 840 L 160 840 L 160 440 z "
       transform="matrix(0.26458333,0,0,0.26458333,0,-41.666703)"
       id="rect1366" />
    <g
       id="g44"
       transform="matrix(0.54929313,0,0,0.54929313,13.404358,36.864846)">
      <path
         id="path10"
         transform="scale(0.26458333)"
         d="m 39.09375,9.75 c -3.937501,0 -8.1875,0.71875 -12.75,2.15625 -4.5625,1.375 -8.8125,3.65625 -12.75,6.84375 -3.8749999,3.125 -7.1249999,7.21875 -9.75,12.28125 C 1.2812501,36.031249 0,42.187499 0,49.5 c 0,7.312499 1.2812501,13.499999 3.84375,18.5625 2.6250001,5.062498 5.8750001,9.156248 9.75,12.28125 3.9375,3.124999 8.1875,5.40625 12.75,6.84375 4.5625,1.375 8.812499,2.0625 12.75,2.0625 h 56.0625 c 2.250001,0 4.28125,0.375001 6.09375,1.125 1.875,0.749999 3.4375,1.812498 4.6875,3.1875 1.3125,1.375 2.3125,3.000002 3,4.875 0.6875,1.875 1.03125,3.9375 1.03125,6.1875 0,4.625 -1.3125,8.3125 -3.9375,11.0625 -2.5625,2.75 -6.187499,4.125 -10.875,4.125 H 1.125 v 24.375 h 94.03125 c 2.625,0 5.40625,-0.3125 8.34375,-0.9375 3,-0.625 5.9375,-1.59375 8.8125,-2.90625 2.875,-1.3125 5.65625,-3 8.34375,-5.0625 2.6875,-2.0625 5.03125,-4.5625 7.03125,-7.5 2,-2.9375 3.59375,-6.3125 4.78125,-10.125 1.25,-3.875 1.875,-8.21875 1.875,-13.03125 0,-4.8125 -0.59375,-9.125 -1.78125,-12.9375 -1.1875,-3.8125 -2.8125,-7.187501 -4.875,-10.125 -2,-2.937502 -4.3125,-5.437502 -6.9375,-7.5 -2.625,-2.125002 -5.40625,-3.875 -8.34375,-5.25 -2.875,-1.375 -5.78125,-2.375 -8.71875,-3 -2.9375,-0.687486 -5.71875,-1.062487 -8.34375,-1.125 h -0.1875 -56.0625 c -4.625001,0 -8.25,-1.343749 -10.875,-4.03125 C 25.65625,57.906251 24.375,54.187499 24.375,49.5 c 0,-4.625 1.28125,-8.34375 3.84375,-11.15625 2.625,-2.8125 6.249999,-4.21875 10.875,-4.21875 H 122.0625 V 9.75 Z M 184.125,42.84375 c -4.1875,0 -7.9375,0.531249 -11.25,1.59375 -3.3125,1.062498 -6.25,2.468751 -8.8125,4.21875 -2.5,1.750002 -4.65625,3.781251 -6.46875,6.09375 -1.75,2.312501 -3.1875,4.75 -4.3125,7.3125 -1.125,2.499999 -1.96875,5.03125 -2.53125,7.59375 -0.5,2.562502 -0.75,5.000001 -0.75,7.3125 v 33 c 0,6.3125 1.125,11.65625 3.375,16.03125 2.3125,4.3125 5.15625,7.84375 8.53125,10.59375 3.4375,2.6875 7.15625,4.625 11.15625,5.8125 4,1.1875 7.6875,1.78125 11.0625,1.78125 h 66.09375 v -24.375 H 184.3125 c -3.25,0 -5.71875,-0.84375 -7.40625,-2.53125 -1.6875,-1.6875 -2.53125,-4.125 -2.53125,-7.3125 v -32.8125 c 0,-3.375 0.8125,-5.875 2.4375,-7.5 1.6875,-1.625 4.125,-2.4375 7.3125,-2.4375 h 66.09375 v -24.375 z m 103.21875,0 V 66 H 340.875 c 3,0 5.46875,0.937502 7.40625,2.8125 2,1.875001 3,4.40625 3,7.59375 v 34.03125 c 0,3 -0.90625,5.5 -2.71875,7.5 -1.8125,2 -4.375,3 -7.6875,3 h -43.78125 c -2.875,0 -5.375,-0.875 -7.5,-2.625 C 287.53125,116.5 286.5,114 286.5,110.8125 c 0,-3 0.90625,-5.5 2.71875,-7.5 1.8125,-2.0625 4.375,-3.09375 7.6875,-3.09375 H 340.875 v -23.25 h -43.96875 c -6.125,0 -11.34375,1.124999 -15.65625,3.375 -4.25,2.249998 -7.71875,5.062498 -10.40625,8.4375 -2.625,3.312499 -4.53125,6.937501 -5.71875,10.875 -1.1875,3.9375 -1.78125,7.59375 -1.78125,10.96875 0,6.125 1.125,11.34375 3.375,15.65625 2.25,4.25 5.03125,7.71875 8.34375,10.40625 3.375,2.625 7,4.53125 10.875,5.71875 3.9375,1.1875 7.59375,1.78125 10.96875,1.78125 H 340.875 c 6.125,0 11.3125,-1.125 15.5625,-3.375 4.3125,-2.25 7.78125,-5.03125 10.40625,-8.34375 2.6875,-3.375 4.625,-7 5.8125,-10.875 1.1875,-3.9375 1.78125,-7.59375 1.78125,-10.96875 V 76.40625 c 0,-6.125002 -1.125,-11.312502 -3.375,-15.5625 -2.25,-4.312501 -5.0625,-7.78125 -8.4375,-10.40625 -3.3125,-2.687499 -6.9375,-4.625 -10.875,-5.8125 -3.875,-1.1875 -7.5,-1.78125 -10.875,-1.78125 z m 120.375,0 c -1.68748,0 -3.28123,0.3125 -4.78125,0.9375 -1.49999,0.625 -2.81251,1.500001 -3.9375,2.625 -1.12501,1.062501 -2.00002,2.343751 -2.625,3.84375 -0.62501,1.4375 -0.9375,3.000001 -0.9375,4.6875 v 89.25 h 24.375 V 67.21875 h 42.65625 c 2.9375,0 5.65624,0.5 8.15625,1.5 2.56249,0.937502 4.78125,2.3125 6.65625,4.125 1.875,1.8125 3.34375,4 4.40625,6.5625 1.12501,2.499999 1.6875,5.34375 1.6875,8.53125 v 56.25 h 24.375 v -56.25 c 0,-5.499999 -0.68751,-10.4375 -2.0625,-14.8125 -1.37499,-4.375 -3.25,-8.218749 -5.625,-11.53125 -2.31249,-3.375 -5,-6.218751 -8.0625,-8.53125 -3.00001,-2.375 -6.18751,-4.312499 -9.5625,-5.8125 -3.3125,-1.5625 -6.68749,-2.687499 -10.125,-3.375 -3.37499,-0.687499 -6.59375,-1.03125 -9.65625,-1.03125 z"
         style="font-style:normal;font-variant:normal;font-weight:normal;font-stretch:normal;font-size:50.79999924px;line-height:1.25;font-family:Audiowide;-inkscape-font-specification:'Audiowide, Normal';font-variant-ligatures:normal;font-variant-caps:normal;font-variant-numeric:normal;font-feature-settings:normal;text-align:start;letter-spacing:0px;word-spacing:0px;writing-mode:lr-tb;text-anchor:start;fill:#00d1cd;fill-opacity:1;stroke:none;stroke-width:1.00157475;stroke-miterlimit:4;stroke-dasharray:none;stroke-opacity:1"
         inkscape:connector-curvature="0" />
      <path
         d="M 172.31816,38.149609 H 139.65039 V 26.218554 q 0,-0.917773 0.19844,-1.934765 0.22324,-1.041797 0.66972,-2.05879 0.44649,-1.016992 1.14102,-1.934765 0.71934,-0.917774 1.71152,-1.612305 1.017,-0.719336 2.33164,-1.141015 1.31465,-0.42168 2.97657,-0.42168 h 14.53554 q 1.31465,0 1.93477,-0.644922 0.64492,-0.669726 0.64492,-1.934766 v -2.852539 q 0,-1.314648 -0.64492,-1.9843745 -0.64492,-0.6697266 -1.88516,-0.6697266 H 142.55254 V 2.5796873 h 20.71191 q 1.63711,0 2.95176,0.4216797 1.31465,0.4216796 2.30684,1.1410156 1.01699,0.6945312 1.73632,1.6123046 0.71934,0.9177734 1.16582,1.9347656 0.47129,0.9921875 0.66973,2.0339844 0.22324,1.0169918 0.22324,1.9099608 v 2.902148 q 0,2.505274 -0.91777,4.241602 -0.89297,1.711523 -2.25723,2.80293 -1.36425,1.066601 -2.95175,1.562695 -1.5627,0.471289 -2.92696,0.471289 H 148.6793 q -0.79375,0 -1.26504,0.223242 -0.47129,0.223242 -0.74414,0.595313 -0.24805,0.37207 -0.37207,0.843359 -0.12403,0.471289 -0.19844,0.942578 v 5.481836 h 26.21855 z"
         style="font-style:normal;font-variant:normal;font-weight:normal;font-stretch:normal;font-size:50.79999924px;line-height:1.25;font-family:Audiowide;-inkscape-font-specification:'Audiowide, Normal';font-variant-ligatures:normal;font-variant-caps:normal;font-variant-numeric:normal;font-feature-settings:normal;text-align:start;letter-spacing:0px;word-spacing:0px;writing-mode:lr-tb;text-anchor:start;fill:#eaeaea;fill-opacity:1;stroke:none;stroke-width:0.26499999;stroke-miterlimit:4;stroke-dasharray:none;stroke-opacity:1"
         id="path18"
         inkscape:connector-curvature="0" />
      <path
         id="path20"
         transform="scale(0.26458333)"
         d="m 828,0 v 109.96875 c 0,6.3125 1.125,11.65625 3.375,16.03125 2.24998,4.3125 5.09374,7.84375 8.53125,10.59375 3.43751,2.6875 7.12499,4.625 11.0625,5.8125 4,1.1875 7.75001,1.78125 11.25,1.78125 h 10.875 v -24.375 h -10.875 c -2.8125,0 -5.15625,-0.875 -7.03125,-2.625 -1.875,-1.8125 -2.8125,-4.21875 -2.8125,-7.21875 V 0 Z M 710.15625,9.75 c -3.37502,0 -7.0625,0.625 -11.0625,1.875 -4,1.1875 -7.71877,3.125 -11.15625,5.8125 -3.37502,2.6875 -6.21876,6.21875 -8.53125,10.59375 -2.25,4.375 -3.375,9.6875 -3.375,15.9375 V 144.1875 h 24.375 V 43.96875 c 0,-3.1875 0.84374,-5.625 2.53125,-7.3125 1.68748,-1.6875 4.15623,-2.53125 7.40625,-2.53125 h 54.9375 c 3.1875,0 5.99998,0.53125 8.4375,1.59375 2.43749,1 4.50002,2.406249 6.1875,4.21875 1.75002,1.812498 3.12501,3.999998 4.125,6.5625 1.00001,2.5625 1.65626,5.375002 1.96875,8.4375 V 66 c 0,3.124999 -0.49999,5.937501 -1.5,8.4375 -0.99999,2.4375 -2.40624,4.531251 -4.21875,6.28125 -1.81249,1.750002 -4.00001,3.156252 -6.5625,4.21875 -2.50001,0.999997 -5.31249,1.624997 -8.4375,1.875 h -55.125 v 24.375 h 55.125 c 3.00001,0 6.18751,-0.34375 9.5625,-1.03125 3.43751,-0.6875 6.8125,-1.78125 10.125,-3.28125 3.37499,-1.5 6.59375,-3.4375 9.65625,-5.8125 3.0625,-2.375002 5.75001,-5.218751 8.0625,-8.53125 2.375,-3.375 4.24998,-7.25 5.625,-11.625 C 809.68749,76.53125 810.375,71.5625 810.375,66 V 54.9375 c 0,-3 -0.34375,-6.1875 -1.03125,-9.5625 -0.6875,-3.437498 -1.81249,-6.812499 -3.375,-10.125 -1.49999,-3.375 -3.4375,-6.59375 -5.8125,-9.65625 -2.31252,-3.0625 -5.15626,-5.75 -8.53125,-8.0625 -3.3125,-2.375 -7.15625,-4.25 -11.53125,-5.625 C 775.71877,10.46875 770.78127,9.75 765.28125,9.75 Z m 196.3125,33.09375 V 66 H 960 c 2.99999,0 5.46874,0.937502 7.40625,2.8125 2,1.875001 3,4.40625 3,7.59375 v 34.03125 c 0,3 -0.90624,5.5 -2.71875,7.5 -1.81251,2 -4.37502,3 -7.6875,3 h -43.78125 c -2.87501,0 -5.375,-0.875 -7.5,-2.625 -2.06249,-1.8125 -3.09375,-4.3125 -3.09375,-7.5 0,-3 0.90626,-5.5 2.71875,-7.5 1.81251,-2.0625 4.375,-3.09375 7.6875,-3.09375 H 960 v -23.25 h -43.96875 c -6.125,0 -11.34373,1.124999 -15.65625,3.375 -4.24998,2.249998 -7.71873,5.062498 -10.40625,8.4375 -2.62498,3.312499 -4.53125,6.937501 -5.71875,10.875 -1.1875,3.9375 -1.78125,7.59375 -1.78125,10.96875 0,6.125 1.125,11.34375 3.375,15.65625 2.25,4.25 5.03125,7.71875 8.34375,10.40625 3.37499,2.625 7,4.53125 10.875,5.71875 3.93749,1.1875 7.59373,1.78125 10.96875,1.78125 H 960 c 6.125,0 11.31252,-1.125 15.5625,-3.375 4.31252,-2.25 7.78127,-5.03125 10.40625,-8.34375 2.68752,-3.375 4.62502,-7 5.8125,-10.875 1.1875,-3.9375 1.78125,-7.59375 1.78125,-10.96875 V 76.40625 c 0,-6.125002 -1.12502,-11.312502 -3.375,-15.5625 -2.25,-4.312501 -5.06248,-7.78125 -8.4375,-10.40625 -3.3125,-2.687499 -6.93751,-4.625 -10.875,-5.8125 C 967,43.4375 963.37499,42.84375 960,42.84375 Z m 107.53125,0 v 67.125 c 0,6.3125 1.125,11.65625 3.375,16.03125 2.25,4.3125 5.0937,7.84375 8.5312,10.59375 3.4376,2.6875 7.1251,4.625 11.0626,5.8125 3.9999,1.1875 7.7499,1.78125 11.25,1.78125 h 43.9687 v -24.375 h -43.7813 c -3.3125,0 -5.8124,-0.84375 -7.5,-2.53125 -1.6875,-1.6875 -2.5312,-4.125 -2.5312,-7.3125 v -67.125 z m 87.9375,0 V 153.9375 c 0,3.1875 -0.8125,5.625 -2.4375,7.3125 -1.625,1.6875 -4.0625,2.53125 -7.3125,2.53125 h -43.9687 v 24.375 h 43.9687 c 2.3125,0 4.75,-0.28125 7.3125,-0.84375 2.5625,-0.5 5.0937,-1.3125 7.5938,-2.4375 2.5624,-1.125 4.9999,-2.59375 7.3124,-4.40625 2.3125,-1.75 4.3438,-3.90625 6.0938,-6.46875 1.75,-2.5 3.1562,-5.4375 4.2188,-8.8125 1.0625,-3.3125 1.5937,-7.0625 1.5937,-11.25 V 42.84375 Z"
         style="font-style:normal;font-variant:normal;font-weight:normal;font-stretch:normal;font-size:50.79999924px;line-height:1.25;font-family:Audiowide;-inkscape-font-specification:'Audiowide, Normal';font-variant-ligatures:normal;font-variant-caps:normal;font-variant-numeric:normal;font-feature-settings:normal;text-align:start;letter-spacing:0px;word-spacing:0px;writing-mode:lr-tb;text-anchor:start;fill:#f30067;fill-opacity:1;stroke:none;stroke-width:1.00157475;stroke-miterlimit:4;stroke-dasharray:none;stroke-opacity:1"
         inkscape:connector-curvature="0" />
    </g>
  </g>
</svg>
